<svg width="69" height="68" viewBox="0 0 69 68" fill="none" xmlns="http://www.w3.org/2000/svg">
<circle cx="35.4189" cy="34" r="33.0811" fill="#BC8A5F"/>
<g clip-path="url(#clip0_22_42)">
<path d="M30.8457 28.5885L30.8459 28.5889C31.5181 30.7982 31.2344 32.8895 30.6475 34.7223C30.0915 36.462 29.1949 38.1429 28.427 39.5824L28.4093 39.6156L28.3738 39.6823C27.5451 41.2358 26.8635 42.531 26.4618 43.7807C26.0782 44.977 26.0244 45.9323 26.2897 46.8043C27.0551 49.3195 28.8304 51.699 30.5746 53.539C31.2959 54.2973 32.0576 55.0158 32.8564 55.6914C39.1894 52.766 42.3836 43.7294 39.5344 34.3596C39.5344 34.3595 39.5344 34.3595 39.5344 34.3594M30.8457 28.5885L24.9421 19.3582C31.4899 19.9525 37.8709 25.7362 40.4135 34.0921L39.5344 34.3594M30.8457 28.5885C29.8434 25.3006 27.7857 22.4719 25.944 20.4245M30.8457 28.5885L25.944 20.4245M39.5344 34.3594C37.212 26.7275 31.6516 21.4843 25.944 20.4245M39.5344 34.3594L25.944 20.4245M21.4978 42.1875L21.4981 42.1866C22.0564 40.4487 22.9528 38.7682 23.7208 37.3284L23.7384 37.2955L23.774 37.2288C24.6025 35.6755 25.284 34.3805 25.6858 33.1309L21.4978 42.1875ZM21.4978 42.1875C20.9107 44.0212 20.6298 46.1135 21.3019 48.3221L21.302 48.3226M21.4978 42.1875L21.302 48.3226M21.302 48.3226C22.3044 51.6104 24.3621 54.4391 26.2038 56.4866C20.4961 55.4267 14.9357 50.1835 12.6133 42.5515C9.76205 33.1813 12.9599 24.1467 19.2911 21.2199M21.302 48.3226L19.2911 21.2199M19.2911 21.2199C20.0897 21.8962 20.8511 22.6155 21.572 23.3745C23.315 25.2108 25.0927 27.5916 25.858 30.1067C26.1234 30.9788 26.0695 31.9343 25.6858 33.1308L19.2911 21.2199ZM27.3076 56.6388L26.7948 57.1258C26.7946 57.1256 26.7943 57.1253 26.7941 57.1251L27.623 56.6628C27.5179 56.6562 27.4128 56.6482 27.3076 56.6388ZM27.3076 56.6388L27.4611 56.493L27.3076 56.6388Z" stroke="white" stroke-width="1.83784"/>
</g>
<g clip-path="url(#clip1_22_42)">
<path d="M55.108 19.3457L55.1079 19.346C54.6268 20.7508 53.6917 21.7342 52.6959 22.4688C51.7512 23.1664 50.6511 23.7052 49.709 24.1666L49.6873 24.1772L49.6436 24.1986C48.6271 24.6965 47.7843 25.1151 47.1045 25.6153L55.108 19.3457ZM55.108 19.3457C55.823 17.2545 55.815 15.0053 55.6256 13.2448C58.2021 15.9456 59.1272 20.7719 57.4652 25.6247M55.108 19.3457L57.4652 25.6247M45.1161 22.9165L45.1166 22.9162C46.0618 22.2203 47.1617 21.6817 48.104 21.2202L48.1255 21.2096L48.1692 21.1882C49.1857 20.6903 50.0285 20.2718 50.7083 19.7716L45.1161 22.9165ZM45.1161 22.9165C44.1198 23.6514 43.1859 24.6365 42.7049 26.0408L42.7048 26.0411M45.1161 22.9165L42.7048 26.0411M42.7048 26.0411C41.9898 28.1324 41.9978 30.3815 42.1872 32.1421C39.6106 29.4412 38.6855 24.6149 40.3476 19.7621C42.3881 13.8041 47.4558 10.298 51.858 11.1553M42.7048 26.0411L51.858 11.1553M57.4652 25.6247C55.4237 31.5817 50.3572 35.0903 45.9546 34.2316M57.4652 25.6247L45.9546 34.2316M55.1074 12.7499L55.5581 12.689C55.5581 12.6894 55.5582 12.6898 55.5582 12.6901C55.5416 12.5638 55.5237 12.4377 55.5046 12.3118C55.2845 12.1203 55.0546 11.9414 54.8153 11.776C54.8672 12.0559 54.9129 12.337 54.9523 12.6189C55.0045 12.6618 55.0562 12.7055 55.1074 12.7499ZM55.1074 12.7499L54.9725 12.7681L55.1074 12.7499ZM45.9546 34.2316C45.7925 33.5787 45.6658 32.9174 45.5752 32.2506C45.3585 30.6349 45.3287 28.7262 45.8764 27.127C46.0663 26.5725 46.454 26.0948 47.1042 25.6155L45.9546 34.2316ZM51.858 11.1553C52.0197 11.8084 52.1459 12.4699 52.236 13.1369C52.4535 14.7502 52.4841 16.6606 51.9364 18.2598C51.7465 18.8143 51.3588 19.2921 50.7086 19.7713L51.858 11.1553ZM42.7054 32.6369L42.2547 32.6978C42.2547 32.6976 42.2546 32.6973 42.2546 32.6971L42.8607 32.7681C42.8084 32.7252 42.7566 32.6814 42.7054 32.6369ZM42.7054 32.6369L42.8402 32.6187L42.7054 32.6369Z" stroke="white" stroke-width="1.18172"/>
</g>
<defs>
<clipPath id="clip0_22_42">
<rect width="37.8043" height="37.8043" fill="white" transform="translate(0.5 46.2375) rotate(-61.9247)"/>
</clipPath>
<clipPath id="clip1_22_42">
<rect width="24.308" height="24.308" fill="white" transform="translate(32.6454 17.1243) rotate(-26.0944)"/>
</clipPath>
</defs>
</svg>
