<svg width="67" height="68" viewBox="0 0 67 68" fill="none" xmlns="http://www.w3.org/2000/svg">
<circle cx="33.4189" cy="34" r="33.0811" fill="#BC8A5F"/>
<path d="M46.1349 22.0227C46.1344 21.3597 45.9097 20.7163 45.4973 20.1972C45.0849 19.6781 44.5089 19.3138 43.8632 19.1635L43.119 16.461C42.9835 16.0238 42.7098 15.6424 42.339 15.3741C41.9682 15.1057 41.5204 14.9649 41.0628 14.9727H24.5932C24.1374 14.9627 23.691 15.103 23.3229 15.372C22.9548 15.641 22.6855 16.0237 22.5565 16.461L21.8124 19.1635C21.1436 19.3333 20.5533 19.7272 20.1399 20.2796C19.7265 20.832 19.515 21.5094 19.5407 22.1989C19.5403 22.8244 19.7423 23.4331 20.1164 23.9343C20.4906 24.4355 21.0168 24.8023 21.6165 24.9798L21.8124 30.4043C21.4988 30.4552 21.2102 30.6064 20.9899 30.8352C20.8516 30.9813 20.744 31.1536 20.6734 31.3419C20.6028 31.5303 20.5706 31.7309 20.5786 31.9318L21.0486 43.2118C21.0633 43.5584 21.1985 43.8889 21.4309 44.1463C21.6633 44.4038 21.9783 44.5719 22.3215 44.6218L22.4782 48.9693C22.519 50.2854 23.072 51.5335 24.0193 52.448C24.9667 53.3624 26.2336 53.8709 27.5503 53.8652H38.1057C39.4258 53.876 40.6976 53.3698 41.6492 52.4549C42.6008 51.5399 43.1565 50.2888 43.1974 48.9693L43.354 44.6218C43.6937 44.5678 44.0041 44.3978 44.2326 44.1408C44.4611 43.8837 44.5935 43.5555 44.6074 43.2118L45.0774 31.9318C45.0854 31.7309 45.0532 31.5303 44.9826 31.3419C44.9119 31.1536 44.8043 30.9813 44.6661 30.8352C44.4535 30.6067 44.1711 30.4551 43.8632 30.4043L44.059 24.9798C44.679 24.7787 45.2167 24.3816 45.5912 23.8482C45.9656 23.3147 46.1564 22.674 46.1349 22.0227ZM24.5932 16.931L41.2194 16.9898L41.8069 19.0852H23.9078L24.5932 16.931ZM41.239 48.9106C41.2134 49.7209 40.8708 50.4889 40.2848 51.0492C39.6989 51.6096 38.9164 51.9175 38.1057 51.9068H27.5503C26.7422 51.9149 25.9633 51.6054 25.381 51.0451C24.7987 50.4848 24.4596 49.7184 24.4365 48.9106L24.2799 44.6414H41.3957L41.239 48.9106ZM28.7253 37.5131C28.7253 36.6997 28.9665 35.9046 29.4184 35.2283C29.8702 34.552 30.5125 34.0249 31.264 33.7136C32.0155 33.4024 32.8423 33.3209 33.6401 33.4796C34.4378 33.6383 35.1706 34.03 35.7458 34.6051C36.3209 35.1803 36.7126 35.913 36.8713 36.7108C37.0299 37.5085 36.9485 38.3354 36.6372 39.0869C36.326 39.8383 35.7989 40.4806 35.1226 40.9325C34.4463 41.3844 33.6512 41.6256 32.8378 41.6256C31.7471 41.6256 30.701 41.1923 29.9298 40.4211C29.1586 39.6498 28.7253 38.6038 28.7253 37.5131ZM41.9049 30.3652H23.7707L23.5749 25.1364H42.0811L41.9049 30.3652ZM43.1974 23.1781H22.4782C22.3354 23.1739 22.1951 23.1397 22.0664 23.0778C21.9377 23.0159 21.8235 22.9275 21.7312 22.8186C21.6388 22.7096 21.5704 22.5824 21.5304 22.4453C21.4904 22.3082 21.4797 22.1642 21.499 22.0227C21.499 21.763 21.6022 21.5139 21.7858 21.3303C21.9695 21.1467 22.2185 21.0435 22.4782 21.0435H43.1974C43.3391 21.0506 43.4779 21.0867 43.6052 21.1496C43.7325 21.2125 43.8455 21.3008 43.9373 21.4091C44.029 21.5174 44.0976 21.6433 44.1388 21.7792C44.1799 21.9151 44.1928 22.0579 44.1765 22.1989C44.1765 22.4586 44.0734 22.7077 43.8897 22.8913C43.7061 23.0749 43.4571 23.1781 43.1974 23.1781Z" fill="white"/>
</svg>
