<svg width="39" height="39" viewBox="0 0 39 39" fill="none" xmlns="http://www.w3.org/2000/svg">
<circle cx="19.5" cy="19.5" r="19.5" fill="#E7BC91"/>
<path d="M27.8704 12.3255H25.4788C25.4788 8.97737 22.8482 6.34671 19.5001 6.34671C16.152 6.34671 13.5213 8.97737 13.5213 12.3255H11.1298C9.81446 12.3255 8.73828 13.4017 8.73828 14.717V29.0661C8.73828 30.3814 9.81446 31.4576 11.1298 31.4576H27.8704C29.1857 31.4576 30.2619 30.3814 30.2619 29.0661V14.717C30.2619 13.4017 29.1857 12.3255 27.8704 12.3255ZM19.5001 8.73822C21.5329 8.73822 23.0873 10.2927 23.0873 12.3255H15.9128C15.9128 10.2927 17.4673 8.73822 19.5001 8.73822ZM27.8704 29.0661H11.1298V14.717H27.8704V29.0661ZM19.5001 19.5C17.4673 19.5 15.9128 17.9455 15.9128 15.9127H13.5213C13.5213 19.2609 16.152 21.8915 19.5001 21.8915C22.8482 21.8915 25.4788 19.2609 25.4788 15.9127H23.0873C23.0873 17.9455 21.5329 19.5 19.5001 19.5Z" fill="#583101"/>
</svg>
